HIERARCHY
ROOT hip
{
  OFFSET 0 0 0
  CHANNELS 6 Xposition Yposition Zposition Zrotation Yrotation Xrotation
  JOINT abdomen
  {
    OFFSET 0 20.6881 -0.73152
    CHANNELS 3 Zrotation Xrotation Yrotation
    JOINT chest
    {
      OFFSET 0 11.7043 -0.48768
      CHANNELS 3 Zrotation Xrotation Yrotation
      JOINT neck
      {
        OFFSET 0 22.1894 -2.19456
        CHANNELS 3 Zrotation Xrotation Yrotation
        JOINT head
        {
          OFFSET -0.24384 7.07133 1.2192
          CHANNELS 3 Zrotation Xrotation Yrotation
          JOINT leftEye
          {
            OFFSET 4.14528 8.04674 8.04672
            CHANNELS 3 Zrotation Xrotation Yrotation
            End Site
            {
              OFFSET 1 0 0
            }
          }
          JOINT rightEye
          {
            OFFSET -3.6576 8.04674 8.04672
            CHANNELS 3 Zrotation Xrotation Yrotation
            End Site
            {
              OFFSET 1 0 0
            }
          }
        }
      }
      JOINT rCollar
      {
        OFFSET -2.68224 19.2634 -4.8768
        CHANNELS 3 Zrotation Xrotation Yrotation
        JOINT rShldr
        {
          OFFSET -8.77824 -1.95073 1.46304
          CHANNELS 3 Zrotation Xrotation Yrotation
          JOINT rForeArm
          {
            OFFSET -28.1742 -1.7115 0.48768
            CHANNELS 3 Zrotation Xrotation Yrotation
            JOINT rHand
            {
              OFFSET -22.5879 0.773209 7.07136
              CHANNELS 3 Zrotation Xrotation Yrotation
              JOINT rThumb1
              {
                OFFSET -1.2192 -0.487915 3.41376
                CHANNELS 3 Zrotation Xrotation Yrotation
                JOINT rThumb2
                {
                  OFFSET -3.37035 -0.52449 3.41376
                  CHANNELS 3 Zrotation Xrotation Yrotation
                  End Site
                  {
                    OFFSET -1.78271 -1.18214 1.43049
                  }
                }
              }
              JOINT rIndex1
              {
                OFFSET -7.75947 0.938293 5.60832
                CHANNELS 3 Zrotation Xrotation Yrotation
                JOINT rIndex2
                {
                  OFFSET -2.54057 -0.884171 1.56538
                  CHANNELS 3 Zrotation Xrotation Yrotation
                  End Site
                  {
                    OFFSET -1.62519 -0.234802 1.16502
                  }
                }
              }
              JOINT rMid1
              {
                OFFSET -8.24714 1.18213 3.41376
                CHANNELS 3 Zrotation Xrotation Yrotation
                JOINT rMid2
                {
                  OFFSET -3.10165 -0.590103 1.0647
                  CHANNELS 3 Zrotation Xrotation Yrotation
                  End Site
                  {
                    OFFSET -2.48547 -0.328903 0.83742
                  }
                }
              }
              JOINT rRing1
              {
                OFFSET -8.82822 0.546677 1.51678
                CHANNELS 3 Zrotation Xrotation Yrotation
                JOINT rRing2
                {
                  OFFSET -2.60934 -0.819778 -0.0198488
                  CHANNELS 3 Zrotation Xrotation Yrotation
                  End Site
                  {
                    OFFSET -2.33842 -0.294052 0.168128
                  }
                }
              }
              JOINT rPinky1
              {
                OFFSET -8.27202 -0.0477905 -0.4584
                CHANNELS 3 Zrotation Xrotation Yrotation
                JOINT rPinky2
                {
                  OFFSET -1.82734 -0.647385 -0.700984
                  CHANNELS 3 Zrotation Xrotation Yrotation
                  End Site
                  {
                    OFFSET -1.69225 -0.51767 -0.607171
                  }
                }
              }
            }
          }
        }
      }
      JOINT lCollar
      {
        OFFSET 2.68224 19.2634 -4.8768
        CHANNELS 3 Zrotation Xrotation Yrotation
        JOINT lShldr
        {
          OFFSET 8.77824 -1.95073 1.46304
          CHANNELS 3 Zrotation Xrotation Yrotation
          JOINT lForeArm
          {
            OFFSET 28.1742 -1.7115 0.48768
            CHANNELS 3 Zrotation Xrotation Yrotation
            JOINT lHand
            {
              OFFSET 22.5879 0.773209 7.07136
              CHANNELS 3 Zrotation Xrotation Yrotation
              JOINT lThumb1
              {
                OFFSET 1.2192 -0.487915 3.41376
                CHANNELS 3 Zrotation Xrotation Yrotation
                JOINT lThumb2
                {
                  OFFSET 3.37035 -0.52449 3.41376
                  CHANNELS 3 Zrotation Xrotation Yrotation
                  End Site
                  {
                    OFFSET 1.78271 -1.18214 1.43049
                  }
                }
              }
              JOINT lIndex1
              {
                OFFSET 7.75947 0.938293 5.60832
                CHANNELS 3 Zrotation Xrotation Yrotation
                JOINT lIndex2
                {
                  OFFSET 2.54057 -0.884171 1.56538
                  CHANNELS 3 Zrotation Xrotation Yrotation
                  End Site
                  {
                    OFFSET 1.62519 -0.234802 1.16502
                  }
                }
              }
              JOINT lMid1
              {
                OFFSET 8.24714 1.18213 3.41376
                CHANNELS 3 Zrotation Xrotation Yrotation
                JOINT lMid2
                {
                  OFFSET 3.10165 -0.590103 1.0647
                  CHANNELS 3 Zrotation Xrotation Yrotation
                  End Site
                  {
                    OFFSET 2.48547 -0.328903 0.83742
                  }
                }
              }
              JOINT lRing1
              {
                OFFSET 8.82822 0.546677 1.51678
                CHANNELS 3 Zrotation Xrotation Yrotation
                JOINT lRing2
                {
                  OFFSET 2.60934 -0.819778 -0.0198488
                  CHANNELS 3 Zrotation Xrotation Yrotation
                  End Site
                  {
                    OFFSET 2.33842 -0.294052 0.168128
                  }
                }
              }
              JOINT lPinky1
              {
                OFFSET 8.27202 -0.0477905 -0.4584
                CHANNELS 3 Zrotation Xrotation Yrotation
                JOINT lPinky2
                {
                  OFFSET 1.82734 -0.647385 -0.700984
                  CHANNELS 3 Zrotation Xrotation Yrotation
                  End Site
                  {
                    OFFSET 1.69225 -0.51767 -0.607171
                  }
                }
              }
            }
          }
        }
      }
    }
  }
  JOINT rButtock
  {
    OFFSET -8.77824 4.35084 1.2192
    CHANNELS 3 Zrotation Xrotation Yrotation
    JOINT rThigh
    {
      OFFSET 0 -1.70687 -2.19456
      CHANNELS 3 Zrotation Xrotation Yrotation
      JOINT rShin
      {
        OFFSET 0 -36.8199 0.73152
        CHANNELS 3 Zrotation Xrotation Yrotation
        JOINT rFoot
        {
          OFFSET 0.73152 -45.1104 -5.12064
          CHANNELS 3 Zrotation Xrotation Yrotation
          End Site
          {
            OFFSET -1.1221 -3.69964 12.103
          }
        }
      }
    }
  }
  JOINT lButtock
  {
    OFFSET 8.77824 4.35084 1.2192
    CHANNELS 3 Zrotation Xrotation Yrotation
    JOINT lThigh
    {
      OFFSET 0 -1.70687 -2.19456
      CHANNELS 3 Zrotation Xrotation Yrotation
      JOINT lShin
      {
        OFFSET 0 -36.8199 0.73152
        CHANNELS 3 Zrotation Xrotation Yrotation
        JOINT lFoot
        {
          OFFSET -0.73152 -45.1104 -5.12064
          CHANNELS 3 Zrotation Xrotation Yrotation
          End Site
          {
            OFFSET 1.1221 -3.69964 12.103
          }
        }
      }
    }
  }
}
MOTION
Frames:	4
Frame Time:	0.00833333
0.857941 84.3859 2.0138 -2.9389 -3.791 10.2655 6.62005 -7.61317 -0.404239 1.43378 -0.588484 -0.210974 3.16549 7.6217 0.974969 -9.37417 -17.0538 0.0435333 -0.0 0.0 0.0 -0.0 0.0 0.0 -1.19365e-14 2.4264e-13 -4.97587e-14 77.277 -1.82261 -8.22384 -13.7962 -6.79099 25.1452 -1.25338 30.0588 4.6653 5.93356e-10 8.89896e-11 -1.10764e-09 9.98303e-10 1.71031e-10 -1.92475e-09 5.93362e-10 8.89868e-11 -1.10765e-09 7.73091 5.47488 0.417314 5.93355e-10 8.89846e-11 -1.10764e-09 2.90554 0.965183 0.102902 5.93364e-10 8.89846e-11 -1.10764e-09 10.2786 0.731801 0.0259123 5.93351e-10 8.89899e-11 -1.10763e-09 2.22167 -0.733487 -0.20892 -1.19779e-14 2.42645e-13 -4.99544e-14 -83.461 14.3084 2.56332 10.356 -4.36039 -18.471 0.485737 19.413 -2.83893 -7.41351e-10 2.08219e-10 9.05887e-10 -1.26678e-09 3.72114e-10 1.57348e-09 -7.41358e-10 2.08222e-10 9.059e-10 -7.73091 5.47488 -0.417314 -7.41348e-10 2.0822e-10 9.05882e-10 -2.90554 0.965183 -0.102902 -7.4136e-10 2.08221e-10 9.05887e-10 -10.2786 0.731801 -0.0259123 -7.41349e-10 2.08222e-10 9.05881e-10 -2.22167 -0.733487 0.20892 -2.03217e-16 0.0 -3.88251e-19 -20.0944 -4.01344 -0.0680454 -0.000893901 1.73277 -0.0041024 -0.464338 2.26421 0.0983924 2.03217e-16 0.0 3.88251e-19 0.849209 -15.491 -26.1542 0.0728771 15.8429 -0.172183 3.06225 -0.247833 28.9978
0.865195 84.3866 2.01275 -2.8892 -3.7822 10.2405 6.59245 -7.60099 -0.401197 1.42634 -0.536 -0.210076 3.16671 7.57191 0.977323 -9.35945 -17.0258 0.0564071 -0.0 0.0 0.0 -0.0 0.0 0.0 4.38424e-15 8.01083e-14 -5.46658e-15 77.4018 -1.67349 -8.03822 -13.8352 -6.82224 25.2232 -1.24773 30.0002 4.6542 -1.86212e-10 2.41655e-10 -4.46149e-10 -3.31809e-10 4.22225e-10 -7.63962e-10 -1.86205e-10 2.41651e-10 -4.46162e-10 7.73091 5.47488 0.417314 -1.86212e-10 2.41649e-10 -4.46152e-10 2.90554 0.965183 0.102902 -1.86204e-10 2.41649e-10 -4.46149e-10 10.2786 0.731801 0.0259123 -1.86218e-10 2.41655e-10 -4.46146e-10 2.22167 -0.733487 -0.20892 4.36255e-15 8.01114e-14 -5.66536e-15 -83.4413 14.5845 2.43502 10.423 -4.40243 -18.5972 0.473469 19.1788 -2.80192 -5.34624e-10 -3.66661e-10 -2.82468e-10 -9.28552e-10 -6.33115e-10 -4.81474e-10 -5.3463e-10 -3.66655e-10 -2.82456e-10 -7.73091 5.47488 -0.417314 -5.34621e-10 -3.66659e-10 -2.82475e-10 -2.90554 0.965183 -0.102902 -5.34635e-10 -3.66657e-10 -2.82469e-10 -10.2786 0.731801 -0.0259123 -5.34623e-10 -3.66656e-10 -2.82475e-10 -2.22167 -0.733487 0.20892 -2.03217e-16 0.0 -3.88251e-19 -20.0951 -4.01094 -0.0679759 -0.000910415 1.72818 -0.00426752 -0.464624 2.26636 0.0984739 2.03217e-16 0.0 3.88251e-19 0.835889 -15.4625 -26.1958 0.0724928 15.8197 -0.173491 3.07138 -0.260837 29.023
0.888021 84.3868 2.01289 -2.7663 -3.7584 10.2057 6.54097 -7.58849 -0.401754 1.42671 -0.507555 -0.209431 3.17177 7.55607 0.980353 -9.35284 -17.0027 0.0657852 -0.0 0.0 0.0 -0.0 0.0 0.0 -3.5815e-15 -8.25229e-14 2.60979e-14 77.5354 -1.40736 -7.88104 -13.8893 -6.86556 25.3315 -1.23718 29.8878 4.63309 -6.80567e-10 1.46048e-10 5.97016e-10 -1.16144e-09 2.39829e-10 1.04835e-09 -6.8056e-10 1.46043e-10 5.97005e-10 7.73091 5.47488 0.417314 -6.80567e-10 1.46042e-10 5.97013e-10 2.90554 0.965183 0.102902 -6.80558e-10 1.46043e-10 5.97016e-10 10.2786 0.731801 0.0259123 -6.80572e-10 1.46048e-10 5.9702e-10 2.22167 -0.733487 -0.20892 -3.55131e-15 -8.25216e-14 2.59305e-14 -83.4389 14.9189 2.35579 10.5099 -4.45727 -18.7608 0.459922 18.9167 -2.76062 2.30432e-10 -4.64157e-10 -1.04764e-09 3.82301e-10 -8.13297e-10 -1.81383e-09 2.30428e-10 -4.64151e-10 -1.04762e-09 -7.73091 5.47488 -0.417314 2.30435e-10 -4.64154e-10 -1.04764e-09 -2.90554 0.965183 -0.102902 2.30422e-10 -4.64153e-10 -1.04764e-09 -10.2786 0.731801 -0.0259123 2.30433e-10 -4.64152e-10 -1.04764e-09 -2.22167 -0.733487 0.20892 -2.03217e-16 0.0 -3.88251e-19 -20.096 -4.0076 -0.0678839 -0.000938594 1.72199 -0.00454212 -0.465058 2.26927 0.0985902 2.03217e-16 0.0 3.88251e-19 0.798533 -15.4248 -26.2377 0.0717805 15.7917 -0.173811 3.0799 -0.275652 29.0369
0.888655 84.3879 2.01191 -2.7527 -3.7192 10.1764 6.47297 -7.5757 -0.405856 1.43149 -0.491729 -0.209314 3.18062 7.55968 0.983788 -9.35333 -16.9832 0.0727978 -0.0 0.0 0.0 -0.0 0.0 0.0 -2.7285e-14 -2.69638e-13 5.40601e-14 77.6734 -1.07586 -7.73809 -13.9505 -6.91471 25.4543 -1.22511 29.7583 4.60882 -1.0857e-09 -1.07191e-10 2.01205e-09 -1.82884e-09 -2.19927e-10 3.50011e-09 -1.08569e-09 -1.07196e-10 2.01204e-09 7.73091 5.47488 0.417314 -1.0857e-09 -1.07194e-10 2.01204e-09 2.90554 0.965183 0.102902 -1.08569e-09 -1.07193e-10 2.01204e-09 10.2786 0.731801 0.0259123 -1.08571e-09 -1.07189e-10 2.01205e-09 2.22167 -0.733487 -0.20892 -2.71807e-14 -2.69639e-13 5.39452e-14 -83.4469 15.2938 2.30436 10.6102 -4.52089 -18.9505 0.445577 18.6334 -2.71614 1.43167e-09 -3.03527e-10 -1.69749e-09 2.44936e-09 -5.49259e-10 -2.95353e-09 1.43167e-09 -3.03521e-10 -1.69748e-09 -7.73091 5.47488 -0.417314 1.43167e-09 -3.03524e-10 -1.6975e-09 -2.90554 0.965183 -0.102902 1.43166e-09 -3.03522e-10 -1.69749e-09 -10.2786 0.731801 -0.0259123 1.43167e-09 -3.03522e-10 -1.6975e-09 -2.22167 -0.733487 0.20892 -2.03217e-16 0.0 -3.88251e-19 -20.0972 -4.00353 -0.0677725 -0.000976276 1.71446 -0.00490555 -0.465609 2.27282 0.098735 2.03217e-16 0.0 3.88251e-19 0.74437 -15.3785 -26.2808 0.0708612 15.7589 -0.173612 3.08919 -0.293968 29.0428
